<svg width="101" height="100" viewBox="0 0 101 100" fill="none" xmlns="http://www.w3.org/2000/svg">
<circle cx="50.5" cy="50" r="49.5" fill="#585858" fill-opacity="0.25" stroke="#CFCFCF"/>
<path d="M68.565 49.4999C68.565 49.3538 68.507 49.2137 68.4037 49.1105C68.3004 49.0072 68.1603 48.9491 68.0143 48.9491H65.0187C64.7337 41.33 58.5782 35.2347 51.0508 34.951V31.9409C51.0508 31.7948 50.9928 31.6547 50.8895 31.5515C50.7862 31.4482 50.6461 31.3901 50.5001 31.3901C50.354 31.3901 50.2139 31.4482 50.1106 31.5515C50.0073 31.6547 49.9493 31.7948 49.9493 31.9409V34.951C46.2779 35.0845 42.7929 36.6017 40.1937 39.1981C37.5945 41.7945 36.0736 45.2779 35.9362 48.9491H32.8508C32.7048 48.9491 32.5647 49.0072 32.4614 49.1105C32.3581 49.2137 32.3 49.3538 32.3 49.4999C32.3 49.646 32.3581 49.7861 32.4614 49.8894C32.5647 49.9927 32.7048 50.0507 32.8508 50.0507H35.936C36.2188 57.6698 42.3301 63.7499 49.9493 64.0337V67.0153C49.9493 67.1614 50.0073 67.3015 50.1106 67.4048C50.2139 67.5081 50.354 67.5661 50.5001 67.5661C50.6461 67.5661 50.7862 67.5081 50.8895 67.4048C50.9928 67.3015 51.0508 67.1614 51.0508 67.0153V64.0337C58.5782 63.7499 64.7361 57.6698 65.0188 50.0507H68.0143C68.1603 50.0507 68.3004 49.9927 68.4037 49.8894C68.507 49.7861 68.565 49.646 68.565 49.4999ZM51.0508 62.9315V60.2868C51.0508 60.1407 50.9928 60.0006 50.8895 59.8973C50.7862 59.794 50.6461 59.736 50.5001 59.736C50.354 59.736 50.2139 59.794 50.1106 59.8973C50.0073 60.0006 49.9493 60.1407 49.9493 60.2868V62.9315C42.9727 62.6488 37.3198 57.0273 37.0383 50.0507H39.5794C39.7254 50.0507 39.8655 49.9927 39.9688 49.8894C40.0721 49.7861 40.1301 49.646 40.1301 49.4999C40.1301 49.3538 40.0721 49.2137 39.9688 49.1105C39.8655 49.0072 39.7254 48.9491 39.5794 48.9491H37.0384C37.3222 41.9726 42.9727 36.3362 49.9493 36.0533V38.6695C49.9493 38.8156 50.0073 38.9557 50.1106 39.059C50.2139 39.1623 50.354 39.2203 50.5001 39.2203C50.6461 39.2203 50.7862 39.1623 50.8895 39.059C50.9928 38.9557 51.0508 38.8156 51.0508 38.6695V36.0533C58.0274 36.3362 63.6327 41.9726 63.9164 48.9491H61.2856C61.1396 48.9491 60.9995 49.0072 60.8962 49.1105C60.7929 49.2137 60.7349 49.3538 60.7349 49.4999C60.7349 49.646 60.7929 49.7861 60.8962 49.8894C60.9995 49.9927 61.1396 50.0507 61.2856 50.0507H63.9165C63.6351 57.0273 58.0274 62.6488 51.0508 62.9315Z" fill="#CFCFCF"/>
<path d="M67.7263 35.7502C67.6686 35.7939 67.6201 35.8485 67.5836 35.9109C67.547 35.9733 67.5231 36.0423 67.5133 36.114C67.5034 36.1856 67.5077 36.2585 67.526 36.3285C67.5443 36.3985 67.5762 36.4642 67.6199 36.5218C70.4492 40.2568 71.9804 44.8141 71.9804 49.4997C71.9804 54.1854 70.4492 58.7427 67.6199 62.4777C67.5751 62.5352 67.5421 62.6011 67.523 62.6715C67.5038 62.7419 67.4989 62.8154 67.5083 62.8877C67.5178 62.96 67.5416 63.0297 67.5782 63.0928C67.6149 63.1559 67.6637 63.211 67.7218 63.2551C67.78 63.2991 67.8463 63.3312 67.9169 63.3494C67.9876 63.3676 68.0611 63.3716 68.1333 63.3612C68.2055 63.3507 68.2749 63.326 68.3375 63.2886C68.4 63.2511 68.4546 63.2015 68.4978 63.1428C71.4722 59.2164 73.082 54.4255 73.082 49.4997C73.082 44.5739 71.4722 39.783 68.4978 35.8566C68.4096 35.7402 68.2788 35.6635 68.1341 35.6436C67.9894 35.6236 67.8427 35.662 67.7263 35.7502Z" fill="#CFCFCF"/>
<path d="M29.0195 49.5001C29.0071 44.8125 30.5396 40.2514 33.3799 36.5223C33.4681 36.4059 33.5064 36.2591 33.4864 36.1144C33.4665 35.9697 33.3898 35.8389 33.2734 35.7507C33.1569 35.6625 33.0102 35.6241 32.8655 35.6441C32.7208 35.6641 32.5899 35.7407 32.5017 35.8571C29.5275 39.7835 27.9178 44.5742 27.9178 49.4999C27.9178 54.4256 29.5275 59.2163 32.5017 63.1427C32.5454 63.2003 32.6 63.2488 32.6624 63.2854C32.7248 63.3219 32.7938 63.3458 32.8655 63.3557C32.9371 63.3656 33.01 63.3613 33.08 63.343C33.15 63.3247 33.2157 63.2928 33.2734 63.2491C33.331 63.2055 33.3795 63.1509 33.4161 63.0885C33.4526 63.026 33.4765 62.957 33.4864 62.8854C33.4963 62.8137 33.492 62.7408 33.4737 62.6708C33.4554 62.6009 33.4235 62.5352 33.3799 62.4775C30.5397 58.7485 29.0072 54.1875 29.0195 49.5001Z" fill="#CFCFCF"/>
<path d="M50.5 26.918C45.572 26.905 40.777 28.5161 36.8566 31.5021C36.7431 31.5913 36.6691 31.7216 36.6506 31.8648C36.6322 32.008 36.6707 32.1527 36.7579 32.2678C36.8451 32.3829 36.974 32.4592 37.1169 32.4801C37.2598 32.5011 37.4052 32.4651 37.5218 32.38C41.2567 29.5507 45.8139 28.0194 50.4995 28.0194C55.1851 28.0194 59.7423 29.5507 63.4772 32.38C63.5938 32.467 63.74 32.5045 63.884 32.4841C64.028 32.4638 64.1581 32.3873 64.246 32.2713C64.3338 32.1554 64.3722 32.0094 64.3528 31.8653C64.3334 31.7211 64.2578 31.5905 64.1424 31.5019C60.2223 28.5161 55.4277 26.9051 50.5 26.918Z" fill="#CFCFCF"/>
<path d="M63.4772 66.6201C59.7422 69.4493 55.185 70.9805 50.4994 70.9805C45.8139 70.9805 41.2567 69.4493 37.5217 66.6201C37.4052 66.533 37.259 66.4956 37.115 66.5159C36.9709 66.5363 36.8408 66.6128 36.753 66.7287C36.6652 66.8446 36.6268 66.9906 36.6462 67.1347C36.6656 67.2789 36.7412 67.4095 36.8565 67.4981C40.7829 70.4724 45.5737 72.0821 50.4994 72.0821C55.4252 72.0821 60.216 70.4724 64.1423 67.4981C64.2577 67.4095 64.3333 67.2789 64.3527 67.1347C64.3721 66.9906 64.3337 66.8446 64.2459 66.7287C64.1581 66.6128 64.0279 66.5363 63.8839 66.5159C63.7399 66.4956 63.5937 66.533 63.4772 66.6201Z" fill="#CFCFCF"/>
<path d="M48.1345 38.4386C48.1715 38.4386 48.2084 38.4349 48.2446 38.4275C48.4344 38.389 48.6278 38.3551 48.8191 38.3265C48.9636 38.305 49.0936 38.2269 49.1805 38.1095C49.2674 37.9921 49.3041 37.845 49.2826 37.7005C49.2611 37.556 49.183 37.426 49.0656 37.3391C48.9482 37.2522 48.8011 37.2154 48.6566 37.237C48.4466 37.2683 48.2343 37.3056 48.0259 37.3479C47.892 37.3749 47.773 37.4507 47.6919 37.5606C47.6108 37.6705 47.5734 37.8065 47.5869 37.9424C47.6005 38.0783 47.664 38.2043 47.7652 38.2959C47.8664 38.3876 47.9981 38.4384 48.1346 38.4385L48.1345 38.4386Z" fill="#CFCFCF"/>
<path d="M46.08 39.0994C46.2144 39.0422 46.3206 38.9339 46.3752 38.7984C46.4298 38.6629 46.4283 38.5113 46.3711 38.3768C46.3139 38.2424 46.2056 38.1362 46.0701 38.0817C45.9346 38.0271 45.783 38.0285 45.6485 38.0857C43.2841 39.0885 41.2906 40.8028 39.9449 42.9904C39.9069 43.0519 39.8814 43.1203 39.8698 43.1917C39.8582 43.2631 39.8608 43.3361 39.8774 43.4065C39.894 43.4769 39.9244 43.5434 39.9667 43.602C40.009 43.6607 40.0624 43.7105 40.1239 43.7485C40.1855 43.7865 40.2539 43.8121 40.3253 43.8237C40.3967 43.8353 40.4697 43.8327 40.5401 43.816C40.6105 43.7994 40.6769 43.7691 40.7356 43.7268C40.7943 43.6845 40.8441 43.6311 40.8821 43.5695C42.1083 41.5757 43.9251 40.0133 46.08 39.0994Z" fill="#CFCFCF"/>
<path d="M50.4999 39.8992C48.6011 39.8992 46.7449 40.4622 45.1661 41.5171C43.5872 42.5721 42.3567 44.0715 41.63 45.8258C40.9033 47.58 40.7132 49.5104 41.0836 51.3728C41.4541 53.2351 42.3684 54.9458 43.7111 56.2885C45.0538 57.6312 46.7645 58.5456 48.6268 58.916C50.4892 59.2865 52.4195 59.0963 54.1738 58.3697C55.9281 57.643 57.4275 56.4125 58.4825 54.8337C59.5374 53.2549 60.1005 51.3987 60.1005 49.4998C60.0977 46.9544 59.0854 44.5141 57.2855 42.7142C55.4856 40.9144 53.0453 39.902 50.4999 39.8992ZM54.7226 56.8695C53.5292 57.5877 52.0392 57.9986 50.4999 57.9986C48.9607 57.9986 47.4706 57.5873 46.2773 56.8689V54.6412C46.2768 54.3039 46.3428 53.9698 46.4715 53.658C46.6002 53.3463 46.789 53.0629 47.0273 52.8241C47.2655 52.5854 47.5484 52.3959 47.8599 52.2665C48.1714 52.1371 48.5053 52.0704 48.8426 52.0701H52.1565C52.4938 52.0704 52.8278 52.1371 53.1393 52.2665C53.4509 52.3958 53.7339 52.5853 53.9722 52.824C54.2105 53.0628 54.3994 53.3462 54.5282 53.658C54.6569 53.9698 54.723 54.3039 54.7226 54.6412V56.8695ZM55.8241 56.1132V54.6412C55.8246 53.6679 55.4385 52.7342 54.7508 52.0455C54.063 51.3568 53.1299 50.9695 52.1566 50.9686H50.8898C51.712 50.8749 52.4715 50.4837 53.0253 49.8689C53.5791 49.254 53.8889 48.4578 53.8964 47.6304V46.8484C53.8964 44.9961 52.3523 43.4886 50.4999 43.4886C48.6476 43.4886 47.1034 44.9956 47.1034 46.8484V47.6304C47.1108 48.4577 47.4204 49.2538 47.974 49.8687C48.5276 50.4835 49.2869 50.8747 50.109 50.9686H48.8422C47.869 50.9696 46.9361 51.3571 46.2485 52.0458C45.561 52.7345 45.1751 53.668 45.1757 54.6412V56.1129C43.8052 55.0108 42.8104 53.5105 42.3287 51.819C41.847 50.1276 41.902 48.3283 42.4863 46.6695C43.0705 45.0107 44.1551 43.574 45.5905 42.5578C47.0258 41.5415 48.7412 40.9957 50.4999 40.9957C52.2586 40.9957 53.974 41.5415 55.4094 42.5578C56.8447 43.574 57.9294 45.0107 58.5136 46.6695C59.0978 48.3283 59.1529 50.1276 58.6712 51.819C58.1894 53.5105 57.1947 55.0108 55.8241 56.1129V56.1132ZM50.4999 49.8882C49.255 49.8882 48.205 48.8753 48.205 47.63V46.848C48.205 45.6031 49.255 44.5898 50.4999 44.5898C51.7449 44.5898 52.7948 45.6026 52.7948 46.848V47.63C52.7948 48.8756 51.7449 49.8882 50.4999 49.8882Z" fill="#CFCFCF"/>
</svg>
