<svg width="101" height="100" viewBox="0 0 101 100" fill="none" xmlns="http://www.w3.org/2000/svg">
<circle cx="50.1667" cy="50" r="49.5" fill="#585858" fill-opacity="0.25" stroke="#CFCFCF"/>
<g clip-path="url(#clip0)">
<path d="M52.3069 37.1638H53.0774C53.4577 37.1638 53.7659 36.8556 53.7659 36.4753C53.7659 36.0951 53.4577 35.7869 53.0774 35.7869H52.3069C51.9266 35.7869 51.6184 36.0951 51.6184 36.4753C51.6184 36.8556 51.9267 37.1638 52.3069 37.1638Z" fill="#CFCFCF"/>
<path d="M36.6066 61.6311L33.6895 64.5483L31.9803 62.839C31.7114 62.5701 31.2754 62.5701 31.0067 62.839C30.7378 63.1078 30.7378 63.5437 31.0066 63.8126L33.2026 66.0087C33.3318 66.1379 33.5068 66.2104 33.6895 66.2104C33.8722 66.2104 34.0471 66.1379 34.1764 66.0087L37.5804 62.6047C37.8493 62.3358 37.8493 61.8999 37.5804 61.6311C37.3115 61.3622 36.8757 61.3622 36.6066 61.6311Z" fill="#CFCFCF"/>
<path d="M66.1579 51.5639C65.8937 51.5639 65.6645 51.7128 65.5492 51.9311H61.54C61.2558 51.9311 60.9877 52.0556 60.8044 52.2726C60.6208 52.49 60.5427 52.7759 60.5905 53.0567C60.6337 53.3116 60.6376 53.5723 60.602 53.8314C60.4373 55.0336 59.4377 55.9529 58.2254 56.0173C57.521 56.0545 56.8489 55.8089 56.338 55.3245C55.8269 54.8397 55.5452 54.1849 55.5452 53.4807C55.5452 53.3382 55.5574 53.1949 55.5815 53.0542C55.6291 52.7749 55.5516 52.4903 55.3686 52.2736C55.1849 52.0559 54.9163 51.9312 54.6316 51.9312H50.702V47.4635C50.702 47.1787 50.5773 46.9101 50.3597 46.7265C50.1429 46.5435 49.8584 46.4658 49.5789 46.5136C49.4384 46.5376 49.295 46.5498 49.1525 46.5498C48.448 46.5498 47.7931 46.268 47.3082 45.7565C46.8239 45.2454 46.5779 44.5748 46.6159 43.8683C46.6809 42.6562 47.6005 41.6573 48.8024 41.493C49.0614 41.4575 49.3218 41.4615 49.5763 41.5047C49.8575 41.5525 50.1432 41.4743 50.3606 41.2906C50.5775 41.1073 50.702 40.8393 50.702 40.5551V37.084C50.9203 36.9686 51.0692 36.7394 51.0692 36.4753C51.0692 36.0951 50.761 35.7869 50.3807 35.7869H34.9454C33.9723 35.7869 33.1807 36.5785 33.1807 37.5517V40.1109C32.9349 40.0865 32.6861 40.0856 32.4353 40.1082C30.5309 40.2796 29.004 41.8479 28.8836 43.7564C28.8143 44.8513 29.1882 45.8933 29.9365 46.6902C30.6742 47.4761 31.7154 47.9268 32.7929 47.9268C32.9229 47.9268 33.0522 47.9204 33.1807 47.9077V56.2874C29.519 56.7121 26.6667 59.8306 26.6667 63.6043C26.6667 67.6672 29.9721 70.9726 34.0349 70.9726C35.717 70.9726 37.2683 70.4048 38.5099 69.4525H54.1139C54.4942 69.4525 54.8024 69.1442 54.8024 68.764C54.8024 68.3838 54.4942 68.0755 54.1139 68.0755H50.702V64.3418C50.702 64.1269 50.6016 63.9243 50.4306 63.7941C50.2596 63.6638 50.0374 63.6209 49.8303 63.6782C49.6087 63.7395 49.3807 63.7704 49.1525 63.7704C48.448 63.7704 47.7931 63.4887 47.3082 62.9771C46.8239 62.4661 46.5779 61.7954 46.6159 61.0889C46.6809 59.8768 47.6005 58.8779 48.8025 58.7136C49.149 58.6662 49.4947 58.6891 49.8302 58.7818C50.037 58.839 50.2595 58.7962 50.4305 58.666C50.6015 58.5358 50.7019 58.3332 50.7019 58.1182V53.3082H54.1721C54.1696 53.3658 54.1683 53.4233 54.1683 53.4808C54.1683 54.551 54.6138 55.5872 55.3904 56.3237C56.1783 57.0707 57.2106 57.4503 58.2985 57.3925C60.1693 57.293 61.7118 55.874 61.9661 54.0185C61.9985 53.7821 62.0096 53.5446 61.9991 53.3083H65.4693V57.3131C65.3599 57.3142 65.2503 57.3198 65.1411 57.33C63.2021 57.5104 61.7133 59.0537 61.6012 60.9997C61.5385 62.0904 61.9156 63.1272 62.6631 63.9189C63.3905 64.6893 64.4111 65.1355 65.4692 65.1473V67.6878C65.4692 67.9017 65.2952 68.0757 65.0814 68.0757H57.3268C56.9465 68.0757 56.6383 68.3839 56.6383 68.7642C56.6383 69.1444 56.9465 69.4526 57.3268 69.4526H65.0816C66.0548 69.4526 66.8464 68.661 66.8464 67.6878V64.7143C66.8464 64.4414 66.7301 64.1803 66.5273 63.9978C66.3248 63.8156 66.0541 63.728 65.7825 63.7562C65.6933 63.7656 65.6024 63.7704 65.5122 63.7704C64.806 63.7704 64.1497 63.4874 63.6646 62.9735C63.1799 62.4601 62.9354 61.7871 62.9761 61.0786C63.0487 59.8178 64.013 58.8178 65.269 58.7009C65.4414 58.685 65.6152 58.6859 65.7849 58.704C66.0537 58.7325 66.3244 58.6452 66.5263 58.4637C66.7298 58.2809 66.8464 58.0192 66.8464 57.7455V52.2524C66.8463 51.8722 66.5382 51.5639 66.1579 51.5639ZM49.3251 57.3162C49.0896 57.3059 48.8527 57.3168 48.6159 57.3492C46.7606 57.6029 45.3412 59.1446 45.2408 61.015C45.1825 62.1028 45.5618 63.136 46.3088 63.9242C47.085 64.7432 48.199 65.1932 49.325 65.1434V68.0754H39.886C40.8365 66.8345 41.4031 65.2847 41.4031 63.6043C41.4031 62.5223 41.1722 61.4778 40.717 60.4996C40.5565 60.1549 40.1469 60.0056 39.8023 60.1659C39.4575 60.3264 39.3081 60.7359 39.4686 61.0806C39.8385 61.8754 40.026 62.7246 40.026 63.6043C40.026 66.9078 37.3384 69.5956 34.0347 69.5956C30.7311 69.5956 28.0436 66.9079 28.0436 63.6043C28.0436 60.3008 30.7312 57.613 34.0349 57.613C35.3509 57.613 36.6 58.0322 37.6474 58.8252C37.9506 59.0547 38.3825 58.995 38.6119 58.6919C38.8414 58.3888 38.7818 57.957 38.4786 57.7274C37.3297 56.8575 35.9833 56.3544 34.5577 56.2554V53.308H38.0277C38.0174 53.5434 38.0284 53.7802 38.0608 54.0171C38.3143 55.8724 39.856 57.2918 41.7267 57.3922C41.7996 57.396 41.8722 57.3981 41.9446 57.3981C42.9518 57.3981 43.9005 57.0211 44.6358 56.3242C45.413 55.5876 45.8587 54.5512 45.8587 53.4806C45.8587 53.4231 45.8574 53.3656 45.8549 53.3081H49.3252V57.3162H49.3251ZM49.3251 51.9311H45.0532C44.8382 51.9311 44.6356 52.0315 44.5054 52.2025C44.3752 52.3736 44.3323 52.5957 44.3895 52.8029C44.4506 53.0242 44.4817 53.2522 44.4817 53.4805C44.4817 54.185 44.2 54.84 43.6885 55.3247C43.1774 55.8091 42.5086 56.0551 41.8002 56.0171C40.5881 55.9521 39.5892 55.0324 39.4249 53.8304C39.3774 53.484 39.4004 53.1382 39.4931 52.8027C39.5503 52.5955 39.5074 52.3735 39.3772 52.2024C39.247 52.0313 39.0444 51.9309 38.8294 51.9309H34.5576V47.0535C34.5576 46.8299 34.4491 46.6204 34.2666 46.4913C34.0843 46.3623 33.8505 46.3297 33.6396 46.4044C33.3673 46.5007 33.0824 46.5495 32.7928 46.5495C32.0837 46.5495 31.4258 46.2647 30.9403 45.7474C30.4551 45.2307 30.2127 44.5543 30.2577 43.8428C30.3357 42.6063 31.3249 41.5902 32.5585 41.4792C32.9292 41.4459 33.2928 41.4911 33.6394 41.6137C33.8503 41.6883 34.084 41.6557 34.2664 41.5267C34.4489 41.3977 34.5574 41.1881 34.5574 40.9646V37.5512C34.5574 37.3373 34.7315 37.1634 34.9453 37.1634H49.3249V40.0954C49.0889 40.085 48.8518 40.0959 48.6157 40.1282C46.7604 40.3819 45.341 41.9236 45.2407 43.794C45.1823 44.8818 45.5616 45.915 46.3086 46.7032C47.0848 47.5222 48.1954 47.9726 49.3248 47.9223V51.9311H49.3251Z" fill="#CFCFCF"/>
<path d="M66.1578 48.8672C65.7775 48.8672 65.4694 49.1754 65.4694 49.5557V50.3262C65.4694 50.7064 65.7775 51.0147 66.1578 51.0147C66.5382 51.0147 66.8463 50.7064 66.8463 50.3262V49.5557C66.8463 49.1754 66.5382 48.8672 66.1578 48.8672Z" fill="#CFCFCF"/>
<path d="M72.2927 33.0385C72.401 33.0312 72.5101 33.0324 72.6169 33.0419C72.8856 33.0662 73.1543 32.9754 73.3535 32.7933C73.5525 32.6114 73.6666 32.3524 73.6666 32.0826V29.6232C73.6666 28.7433 72.9507 28.0274 72.0707 28.0274H69.2604C68.8801 28.0274 68.5719 28.3357 68.5719 28.7159C68.5719 29.0961 68.8801 29.4044 69.2604 29.4044H72.0708C72.1915 29.4044 72.2897 29.5025 72.2897 29.6232V31.6598C72.2598 31.661 72.2299 31.6627 72.1999 31.6647C70.4907 31.78 69.1274 33.1566 69.029 34.8668C68.9743 35.8163 69.3026 36.7189 69.9534 37.4082C70.5622 38.0529 71.4067 38.4369 72.2896 38.4747V41.6377H68.7964C68.5815 41.6377 68.3789 41.738 68.2486 41.9091C68.1185 42.08 68.0755 42.302 68.1326 42.5092C68.1816 42.6869 68.2065 42.8695 68.2065 43.0521C68.2065 43.6142 67.9823 44.1372 67.5751 44.525C67.1682 44.9125 66.6348 45.1108 66.07 45.0832C65.0693 45.0344 64.2432 44.2446 64.1485 43.2463C64.1249 42.9979 64.1466 42.75 64.213 42.5095C64.2702 42.3023 64.2274 42.0803 64.0972 41.9092C63.9669 41.7382 63.7643 41.6378 63.5494 41.6378H60.0561V37.6909C60.0561 37.4759 59.9557 37.2733 59.7847 37.1431C59.6136 37.0129 59.3915 36.9699 59.1844 37.0273C59.0071 37.0762 58.8245 37.1011 58.6418 37.1011C58.0795 37.1011 57.5564 36.8767 57.1684 36.4693C56.781 36.0621 56.5829 35.5274 56.6108 34.9635C56.6601 33.9632 57.45 33.1376 58.448 33.0432C58.696 33.0197 58.944 33.0414 59.1844 33.1078C59.3918 33.1651 59.6136 33.1223 59.7847 32.992C59.9557 32.8618 60.0561 32.6592 60.0561 32.4442V29.4043H66.0475C66.4278 29.4043 66.736 29.096 66.736 28.7158C66.736 28.3356 66.4278 28.0273 66.0475 28.0273H59.6433C59.1118 28.0273 58.6794 28.4597 58.6794 28.9912V31.657C58.5583 31.6556 58.4388 31.6608 58.3185 31.6721C56.6438 31.8306 55.3186 33.2163 55.2357 34.8955C55.2207 35.1995 55.2455 35.4983 55.307 35.7868H55.0035C54.6232 35.7868 54.315 36.0951 54.315 36.4753C54.315 36.8555 54.6232 37.1638 55.0035 37.1638H55.7741C55.8298 37.1638 55.8832 37.155 55.9351 37.1425C56.0085 37.2378 56.0872 37.33 56.1714 37.4184C56.8303 38.1106 57.7218 38.4875 58.6793 38.4776V42.0507C58.6793 42.5822 59.1117 43.0146 59.6432 43.0146H62.7626C62.7612 43.1348 62.7663 43.2554 62.7777 43.3761C62.9247 44.9251 64.1215 46.1738 65.6289 46.4182C65.5293 46.5376 65.4692 46.6912 65.4692 46.8589V47.6295C65.4692 48.0097 65.7774 48.3179 66.1577 48.3179C66.538 48.3179 66.8462 48.0097 66.8462 47.6295V46.8589C66.8462 46.6938 66.7879 46.5422 66.6909 46.4236C67.3761 46.3203 68.0109 46.0114 68.5247 45.522C69.2074 44.8718 69.5834 43.9946 69.5834 43.052C69.5834 43.0395 69.5833 43.0271 69.5832 43.0147H72.7028C73.2343 43.0147 73.6667 42.5823 73.6667 42.0508V38.0525C73.6667 37.7833 73.5529 37.5247 73.3545 37.3431C73.1547 37.1602 72.8848 37.0692 72.6149 37.0929C72.5551 37.0982 72.4941 37.1008 72.4337 37.1008C71.8684 37.1008 71.343 36.8743 70.9547 36.4629C70.5667 36.052 70.3711 35.5131 70.4037 34.9458C70.4614 33.9439 71.2911 33.1061 72.2927 33.0385Z" fill="#CFCFCF"/>
</g>
<defs>
<clipPath id="clip0">
<rect width="47" height="47" fill="white" transform="translate(26.6667 26)"/>
</clipPath>
</defs>
</svg>
