<svg width="101" height="100" viewBox="0 0 101 100" fill="none" xmlns="http://www.w3.org/2000/svg">
<circle cx="50.5" cy="50" r="49.5" fill="#585858" fill-opacity="0.25" stroke="#CFCFCF"/>
<path d="M69.5343 52.9218C68.9627 52.8959 68.3926 52.9989 67.8662 53.2233V49.8735C67.8669 49.3919 67.6765 48.9297 67.3369 48.5883C66.9972 48.2468 66.536 48.0541 66.0544 48.0522H49.3862C48.9046 48.0541 48.4434 48.2468 48.1038 48.5883C47.7642 48.9297 47.5738 49.3919 47.5745 49.8735V53.2231C47.0481 52.9988 46.4779 52.8958 45.9063 52.9218C44.0066 53.0097 42.4501 54.5466 42.3629 56.4201C42.2778 58.2462 43.582 59.8579 45.3731 60.2008V70.3221C45.3734 70.6317 45.4965 70.9286 45.7155 71.1475C45.9344 71.3665 46.2313 71.4896 46.5409 71.49H48.658C48.9675 71.4896 49.2642 71.3665 49.483 71.1477C49.7019 70.929 49.8252 70.6324 49.8258 70.3229L49.8273 68.1473H65.6136L65.615 70.3229C65.6156 70.6324 65.7389 70.929 65.9579 71.1477C66.1768 71.3665 66.4735 71.4895 66.783 71.4899H68.9C69.2097 71.4896 69.5065 71.3664 69.7255 71.1475C69.9445 70.9285 70.0676 70.6316 70.068 70.322V60.2008C71.8589 59.8579 73.1632 58.2462 73.078 56.4202C72.9902 54.5464 71.434 53.0097 69.5343 52.9218ZM48.6761 49.8735C48.6751 49.684 48.7493 49.5018 48.8824 49.3669C49.0155 49.232 49.1967 49.1554 49.3862 49.1538H66.0544C66.244 49.1553 66.4251 49.232 66.5583 49.3669C66.6914 49.5018 66.7656 49.684 66.7647 49.8735V53.9394C66.7555 53.9478 66.7463 53.9557 66.7371 53.9642C66.3789 54.3014 66.0935 54.7083 65.8985 55.16C65.7035 55.6116 65.603 56.0983 65.6032 56.5903L65.6026 56.6565C65.6018 56.7263 65.6008 56.8044 65.606 56.884L65.6078 59.7364C64.0364 59.309 62.4328 59.0103 60.8129 58.8432L61.8283 56.0474C61.8782 55.9101 61.8715 55.7586 61.8097 55.6262C61.7479 55.4938 61.6361 55.3914 61.4988 55.3415C61.3615 55.2916 61.21 55.2983 61.0776 55.3601C60.9452 55.4219 60.8428 55.5337 60.7929 55.671L59.6755 58.7477C58.4659 58.6693 57.2527 58.6645 56.0426 58.7333L54.6289 55.6967C54.5661 55.5662 54.4544 55.4658 54.318 55.4171C54.1816 55.3683 54.0315 55.3753 53.9003 55.4364C53.769 55.4975 53.667 55.6079 53.6165 55.7436C53.566 55.8793 53.571 56.0295 53.6304 56.1616L54.8696 58.8237C53.1675 58.9882 51.4824 59.2968 49.8324 59.7462L49.8345 56.8837C49.8397 56.8042 49.8387 56.7262 49.8377 56.6566L49.837 56.5899C49.8373 56.098 49.7368 55.6112 49.5418 55.1596C49.3468 54.708 49.0615 54.301 48.7033 53.9639C48.6941 53.9553 48.6849 53.9475 48.6757 53.9391L48.6761 49.8735ZM49.832 60.8899C51.7398 60.3488 53.698 60.0041 55.6759 59.8611C55.685 59.8616 55.6951 59.8632 55.7049 59.8632C55.7401 59.863 55.7751 59.8594 55.8096 59.8526C59.1107 59.6304 62.4254 59.9778 65.6087 60.8795L65.6114 64.9695H49.8291L49.832 60.8899ZM48.6577 70.3885H46.5406C46.523 70.3885 46.5062 70.3815 46.4937 70.3691C46.4813 70.3566 46.4743 70.3398 46.4743 70.3222V59.9465C46.4743 59.7497 46.4021 59.5597 46.2714 59.4126C46.1407 59.2654 45.9607 59.1712 45.7653 59.1478C45.1152 59.0733 44.5171 58.7563 44.0904 58.2602C43.6636 57.7642 43.4396 57.1254 43.463 56.4715C43.5242 55.16 44.6197 54.0842 45.9572 54.0223C45.9987 54.0204 46.04 54.0194 46.0813 54.0193C46.6605 54.0198 47.2243 54.2056 47.6903 54.5496C47.7418 54.6159 47.8077 54.6696 47.8831 54.7066C47.9032 54.725 47.9234 54.7423 47.943 54.761C48.193 54.9957 48.3923 55.2791 48.5287 55.5937C48.6651 55.9083 48.7356 56.2475 48.7359 56.5904C48.7359 56.6165 48.7359 56.644 48.7367 56.672C48.7374 56.7239 48.7382 56.783 48.7352 56.8181C48.734 56.8332 48.7334 56.8483 48.7334 56.8635L48.7275 65.5199L48.7261 67.5955V67.5971L48.7243 70.3218C48.7243 70.3306 48.7226 70.3392 48.7193 70.3474C48.716 70.3555 48.7111 70.3628 48.7049 70.369C48.6987 70.3752 48.6914 70.3802 48.6833 70.3835C48.6752 70.3868 48.6665 70.3886 48.6577 70.3885ZM49.8279 67.0459L49.8285 66.0711H65.6121L65.6129 67.0459H49.8279ZM69.6754 59.1478C69.48 59.1712 69.3 59.2654 69.1693 59.4125C69.0387 59.5597 68.9665 59.7497 68.9664 59.9465V70.3221C68.9664 70.3397 68.9594 70.3566 68.947 70.369C68.9345 70.3815 68.9176 70.3884 68.9 70.3884H66.783C66.7654 70.3884 66.7485 70.3815 66.7361 70.369C66.7236 70.3566 66.7166 70.3398 66.7166 70.3222L66.71 60.4614V60.4563L66.7076 56.8633C66.7076 56.8481 66.707 56.833 66.7057 56.8179C66.7028 56.7824 66.7036 56.7232 66.7042 56.6711C66.7042 56.6435 66.7049 56.616 66.7049 56.5904C66.7053 56.2475 66.7758 55.9083 66.9122 55.5937C67.0486 55.2791 67.2479 54.9958 67.4979 54.7611C67.5175 54.7428 67.5379 54.7244 67.5579 54.7066C67.6332 54.6696 67.6992 54.6159 67.7506 54.5495C68.2166 54.2056 68.7803 54.0198 69.3595 54.0193C69.4008 54.0193 69.4422 54.0203 69.4836 54.0223C70.821 54.0842 71.9162 55.16 71.9779 56.4715C72.0013 57.1255 71.7772 57.7642 71.3504 58.2603C70.9237 58.7563 70.3256 59.0733 69.6754 59.1478Z" fill="#CFCFCF"/>
<path d="M45.025 42.3563C45.2688 43.2451 46.0617 43.9013 46.9905 43.9013C47.9193 43.9013 48.7121 43.2451 48.9561 42.3563H49.6611V42.9549C49.6611 43.101 49.7191 43.2411 49.8224 43.3444C49.9257 43.4476 50.0658 43.5057 50.2118 43.5057H65.8124C65.9584 43.5057 66.0985 43.4476 66.2018 43.3444C66.3051 43.2411 66.3631 43.101 66.3631 42.9549V30.7643C66.3631 30.6182 66.3051 30.4781 66.2018 30.3748C66.0985 30.2715 65.9584 30.2135 65.8124 30.2135H50.2118C50.0658 30.2135 49.9257 30.2715 49.8224 30.3748C49.7191 30.4781 49.6611 30.6182 49.6611 30.7643V36.8952C48.9964 36.439 48.228 36.1566 47.4261 36.0739C47.1732 31.3071 43.3919 27.5103 38.7797 27.5103C34.0203 27.5103 30.1459 31.5534 30.1203 36.5333C30.1193 36.5461 30.1183 36.5589 30.1183 36.5718V70.3886H28.4688C28.3227 70.3886 28.1826 70.4466 28.0793 70.5499C27.976 70.6532 27.918 70.7933 27.918 70.9394C27.918 71.0854 27.976 71.2255 28.0793 71.3288C28.1826 71.4321 28.3227 71.4901 28.4688 71.4901H33.4441C33.5902 71.4901 33.7303 71.4321 33.8336 71.3288C33.9369 71.2255 33.9949 71.0854 33.9949 70.9394C33.9949 70.7933 33.9369 70.6532 33.8336 70.5499C33.7303 70.4466 33.5902 70.3886 33.4441 70.3886H31.2199V36.6091C31.2204 36.5999 31.2212 36.5914 31.2212 36.5824C31.2212 32.1872 34.612 28.6114 38.7797 28.6114C42.7868 28.6114 46.0747 31.9166 46.3228 36.0773C45.1351 36.2092 44.0376 36.7741 43.24 37.664C42.4424 38.5539 42.0007 39.7065 41.9992 40.9015V41.8055C41.9992 41.9516 42.0572 42.0917 42.1605 42.195C42.2638 42.2983 42.4039 42.3563 42.5499 42.3563H45.025ZM46.9905 42.7998C46.8343 42.7972 46.6814 42.7552 46.5458 42.6777C46.4102 42.6002 46.2964 42.4896 46.215 42.3563H47.7664C47.6849 42.4896 47.5711 42.6002 47.4355 42.6778C47.2998 42.7553 47.1467 42.7973 46.9905 42.7998ZM50.7626 42.3563H51.2283C51.3744 42.3563 51.5145 42.2983 51.6178 42.195C51.7211 42.0917 51.7791 41.9516 51.7791 41.8055V41.5771L54.5403 38.8466L57.8833 42.4041H50.7626V42.3563ZM59.3948 42.4039L59.3107 42.3143L61.9111 40.1235L64.3461 42.4041L59.3948 42.4039ZM65.2616 31.3149V41.7524L62.3069 38.985C62.2085 38.8928 62.0797 38.84 61.9449 38.8364C61.81 38.8328 61.6786 38.8789 61.5755 38.9658L58.5554 41.5104L54.9563 37.6805C54.906 37.627 54.8454 37.584 54.7782 37.5542C54.711 37.5244 54.6385 37.5084 54.565 37.5071C54.4915 37.5051 54.4182 37.5181 54.3499 37.5454C54.2815 37.5728 54.2195 37.6139 54.1677 37.6661L51.7108 40.0953C51.5782 39.3078 51.2525 38.5653 50.7626 37.9345V31.3151L65.2616 31.3149ZM43.1012 40.9015C43.1023 39.9067 43.498 38.953 44.2014 38.2495C44.9048 37.5461 45.8586 37.1504 46.8534 37.1493H46.9257C47.9205 37.1504 48.8742 37.5461 49.5776 38.2495C50.2811 38.953 50.6768 39.9067 50.6779 40.9015V41.1758C50.6675 41.2014 50.6592 41.2278 50.6529 41.2547H43.1012V40.9015Z" fill="#CFCFCF"/>
<path d="M46.1252 38.3701C46.0834 38.3111 46.0303 38.261 45.9691 38.2225C45.9079 38.184 45.8397 38.1579 45.7684 38.1458C45.6971 38.1336 45.6241 38.1356 45.5535 38.1517C45.483 38.1678 45.4164 38.1976 45.3574 38.2394C44.8534 38.5961 44.4214 39.045 44.0844 39.5624C44.0449 39.623 44.0177 39.6908 44.0044 39.7619C43.991 39.833 43.9918 39.906 44.0067 39.9768C44.0216 40.0475 44.0503 40.1147 44.0911 40.1744C44.132 40.2341 44.1842 40.2852 44.2448 40.3247C44.3054 40.3642 44.3731 40.3914 44.4442 40.4047C44.5153 40.4181 44.5883 40.4173 44.6591 40.4024C44.7299 40.3875 44.7971 40.3588 44.8568 40.318C44.9165 40.2771 44.9675 40.2249 45.0071 40.1643C45.2685 39.763 45.6035 39.4147 45.9945 39.138C46.0535 39.0962 46.1037 39.0431 46.1422 38.9819C46.1807 38.9207 46.2068 38.8525 46.2189 38.7812C46.231 38.7099 46.229 38.6369 46.2129 38.5663C46.1969 38.4958 46.1671 38.4291 46.1252 38.3701Z" fill="#CFCFCF"/>
<path d="M58.2702 38.0878C58.6538 38.0878 59.0287 37.9741 59.3477 37.761C59.6666 37.5479 59.9151 37.245 60.0619 36.8907C60.2087 36.5363 60.2471 36.1464 60.1723 35.7702C60.0974 35.394 59.9127 35.0485 59.6415 34.7772C59.3703 34.506 59.0248 34.3213 58.6486 34.2465C58.2724 34.1717 57.8825 34.2101 57.5281 34.3568C57.1737 34.5036 56.8709 34.7522 56.6578 35.0711C56.4447 35.39 56.3309 35.765 56.3309 36.1485C56.3315 36.6627 56.536 37.1556 56.8996 37.5192C57.2632 37.8827 57.7561 38.0872 58.2702 38.0878ZM58.2702 35.3108C58.4359 35.3108 58.5979 35.3599 58.7357 35.452C58.8734 35.544 58.9808 35.6749 59.0442 35.8279C59.1076 35.981 59.1242 36.1495 59.0919 36.312C59.0596 36.4745 58.9798 36.6237 58.8626 36.7409C58.7454 36.8581 58.5962 36.9378 58.4337 36.9702C58.2712 37.0025 58.1027 36.9859 57.9496 36.9225C57.7966 36.8591 57.6657 36.7517 57.5737 36.6139C57.4816 36.4762 57.4325 36.3142 57.4325 36.1485C57.4327 35.9264 57.5211 35.7135 57.6781 35.5564C57.8352 35.3994 58.0481 35.311 58.2702 35.3108Z" fill="#CFCFCF"/>
</svg>
