<svg width="101" height="100" viewBox="0 0 101 100" fill="none" xmlns="http://www.w3.org/2000/svg">
<circle cx="50.8333" cy="50" r="49.5" fill="#585858" fill-opacity="0.25" stroke="#CFCFCF"/>
<path d="M38.2633 61.3465C38.1423 61.3464 38.0239 61.3117 37.922 61.2466C37.82 61.1814 37.7388 61.0885 37.6879 60.9788L33.858 52.7354C33.8177 52.6492 33.7972 52.5551 33.7982 52.4599C33.7991 52.3648 33.8214 52.2711 33.8634 52.1857C33.9054 52.1004 33.9661 52.0256 34.0409 51.9668C34.1157 51.908 34.2027 51.8668 34.2956 51.8462C36.5967 51.3317 38.9016 50.9201 41.1468 50.6235C41.3113 50.6064 41.4761 50.6541 41.606 50.7565C41.7359 50.8589 41.8207 51.008 41.8423 51.172C41.864 51.336 41.8209 51.502 41.722 51.6346C41.6232 51.7673 41.4766 51.8562 41.3132 51.8824C39.3564 52.1415 37.3519 52.4889 35.343 52.9176L38.6203 59.9721C45.8011 58.308 53.4303 58.6942 58.6194 59.3242C60.6975 59.5713 62.2282 59.8451 62.9701 59.9886L66.3198 52.9107C64.3616 52.4749 62.3641 52.1199 60.3711 51.8525C60.2041 51.8301 60.0528 51.7423 59.9505 51.6083C59.8483 51.4744 59.8034 51.3053 59.8258 51.1383C59.8482 50.9713 59.9361 50.82 60.07 50.7178C60.2039 50.6155 60.373 50.5706 60.54 50.593C62.8348 50.9011 65.1352 51.3235 67.3773 51.8493C67.4694 51.871 67.5556 51.9129 67.6294 51.9721C67.7032 52.0313 67.7629 52.1063 67.8041 52.1915C67.8452 52.2767 67.8668 52.3701 67.8673 52.4647C67.8677 52.5594 67.847 52.6529 67.8066 52.7385L63.9069 60.9826C63.8454 61.1125 63.7417 61.2176 63.6128 61.281C63.4838 61.3443 63.3372 61.362 63.1968 61.3313C63.179 61.3275 61.3327 60.9267 58.4689 60.5863C53.2608 59.9511 45.5566 59.57 38.4157 61.3281C38.3658 61.3402 38.3147 61.3464 38.2633 61.3465Z" fill="#CFCFCF"/>
<path d="M70.332 67.3397C70.2622 67.3397 70.1929 67.3281 70.1268 67.3055C66.1968 66.0638 62.1608 65.1862 58.0701 64.6836C57.9043 64.6649 57.7526 64.5817 57.6477 64.4521C57.5427 64.3224 57.493 64.1567 57.5092 63.9907L57.91 59.8909C57.9184 59.8079 57.943 59.7274 57.9824 59.6539C58.0219 59.5804 58.0754 59.5154 58.14 59.4626C58.2046 59.4098 58.2789 59.3703 58.3588 59.3462C58.4387 59.3222 58.5225 59.3141 58.6055 59.3224C58.6885 59.3308 58.769 59.3554 58.8425 59.3949C58.916 59.4343 58.981 59.4879 59.0337 59.5524C59.0865 59.617 59.1261 59.6914 59.1501 59.7712C59.1742 59.8511 59.1823 59.9349 59.1739 60.0179L58.8335 63.5029C62.2238 63.9542 65.5774 64.6476 68.8686 65.5779C68.1503 64.4616 67.3539 63.3974 66.4856 62.3933C66.4167 62.3175 66.3672 62.2263 66.3412 62.1272C66.3153 62.0282 66.3136 61.9243 66.3365 61.8245C66.3593 61.7247 66.4059 61.6319 66.4724 61.554C66.5388 61.4761 66.6231 61.4154 66.7181 61.3771L70.5524 59.821C68.5644 59.217 65.8111 58.4498 64.699 58.4136C64.6156 58.4109 64.5336 58.3917 64.4576 58.3573C64.3816 58.3229 64.3132 58.2739 64.2561 58.213C64.1991 58.1522 64.1546 58.0807 64.1252 58.0026C64.0958 57.9246 64.0821 57.8415 64.0848 57.7581C64.0924 57.5905 64.1652 57.4324 64.2876 57.3177C64.4101 57.203 64.5725 57.1406 64.7402 57.1439C66.7206 57.2074 72.386 59.0633 72.6261 59.1421C72.7497 59.1826 72.858 59.2602 72.9361 59.3642C73.0142 59.4683 73.0585 59.5939 73.0629 59.7239C73.0674 59.854 73.0317 59.9823 72.9609 60.0914C72.89 60.2006 72.7873 60.2853 72.6667 60.3342L68.0118 62.2231C69.0564 63.5441 70.0137 64.9318 70.8776 66.3775C70.9344 66.474 70.9648 66.5837 70.9656 66.6957C70.9664 66.8077 70.9376 66.9179 70.882 67.0151C70.8265 67.1123 70.7463 67.1932 70.6495 67.2494C70.5526 67.3056 70.4427 67.3353 70.3307 67.3353L70.332 67.3397Z" fill="#CFCFCF"/>
<path d="M31.3347 67.3399C31.2227 67.3398 31.1127 67.3102 31.0159 67.2539C30.9191 67.1977 30.8389 67.1169 30.7833 67.0196C30.7278 66.9224 30.699 66.8122 30.6998 66.7003C30.7006 66.5883 30.7309 66.4785 30.7878 66.3821C31.6517 64.9364 32.6089 63.5486 33.6536 62.2277L28.9999 60.3388C28.8793 60.2899 28.7766 60.2051 28.7058 60.096C28.6349 59.9868 28.5993 59.8586 28.6037 59.7285C28.6081 59.5984 28.6524 59.4729 28.7306 59.3688C28.8087 59.2647 28.9169 59.1872 29.0406 59.1466C29.2806 59.0679 34.9473 57.2133 36.9264 57.1485C37.0103 57.1437 37.0942 57.1559 37.1732 57.1846C37.2522 57.2132 37.3245 57.2576 37.3858 57.315C37.4471 57.3725 37.4961 57.4417 37.5298 57.5187C37.5635 57.5957 37.5812 57.6787 37.5819 57.7627C37.5846 57.846 37.5708 57.9291 37.5414 58.0072C37.512 58.0852 37.4676 58.1567 37.4105 58.2176C37.3535 58.2785 37.285 58.3275 37.2091 58.3619C37.1331 58.3963 37.0511 58.4154 36.9677 58.4181C35.8549 58.4543 33.1023 59.2216 31.1143 59.8256L34.9486 61.3817C35.0435 61.42 35.1278 61.4806 35.1943 61.5585C35.2607 61.6364 35.3073 61.7293 35.3302 61.8291C35.353 61.9289 35.3514 62.0327 35.3254 62.1318C35.2994 62.2308 35.2499 62.3221 35.1811 62.3979C34.3131 63.4003 33.517 64.4628 32.7987 65.5774C36.0899 64.6471 39.4435 63.9537 42.8338 63.5024L42.4934 60.0174C42.4765 59.8498 42.5269 59.6823 42.6335 59.5519C42.7402 59.4215 42.8942 59.3388 43.0618 59.3219C43.2294 59.3051 43.3968 59.3555 43.5273 59.4621C43.6577 59.5687 43.7404 59.7228 43.7573 59.8904L44.1581 63.9902C44.1743 64.1562 44.1246 64.3219 44.0196 64.4515C43.9147 64.5812 43.763 64.6644 43.5972 64.6831C39.5066 65.1859 35.4709 66.0638 31.5411 67.3056C31.4747 67.3283 31.4049 67.3399 31.3347 67.3399Z" fill="#CFCFCF"/>
<path d="M57.969 35.2938C57.8316 35.2938 57.6979 35.2493 57.588 35.1668C56.5265 34.3725 55.332 33.7737 54.0604 33.3986C53.9791 33.3761 53.9031 33.3376 53.8368 33.2853C53.7705 33.2331 53.7153 33.1682 53.6744 33.0944C53.6335 33.0206 53.6077 32.9393 53.5985 32.8554C53.5894 32.7716 53.597 32.6867 53.621 32.6058C53.6451 32.5249 53.6849 32.4496 53.7384 32.3843C53.7918 32.319 53.8578 32.265 53.9323 32.2254C54.0069 32.1859 54.0885 32.1616 54.1726 32.154C54.2566 32.1463 54.3414 32.1556 54.4218 32.181C55.8375 32.599 57.1675 33.2657 58.3495 34.15C58.4561 34.2299 58.5349 34.3415 58.5747 34.4687C58.6144 34.5959 58.6131 34.7325 58.5709 34.8589C58.5288 34.9854 58.4479 35.0954 58.3398 35.1733C58.2316 35.2513 58.1017 35.2932 57.9684 35.2932L57.969 35.2938Z" fill="#CFCFCF"/>
<path d="M50.8828 56.7591C49.0733 56.7616 47.2846 56.3727 45.6394 55.6191C43.9942 54.8654 42.5315 53.7649 41.3516 52.3929C40.1717 51.0209 39.3025 49.4099 38.8037 47.6705C38.3048 45.931 38.1881 44.1042 38.4615 42.3154C38.8999 39.4682 40.3041 36.8584 42.4385 34.9237C44.5729 32.989 47.3077 31.8471 50.1842 31.6896C50.3526 31.6806 50.5178 31.7389 50.6433 31.8516C50.7687 31.9644 50.8443 32.1223 50.8533 32.2908C50.8623 32.4592 50.804 32.6244 50.6913 32.7498C50.5786 32.8753 50.4206 32.9509 50.2522 32.9599C48.0607 33.0794 45.9517 33.8358 44.184 35.1365C42.4162 36.4371 41.0664 38.2254 40.3003 40.2821C39.5341 42.3387 39.3848 44.5742 39.8707 46.7145C40.3567 48.8547 41.4567 50.8066 43.0358 52.3307C44.615 53.8549 46.6046 54.885 48.7608 55.2948C50.9169 55.7045 53.1457 55.4761 55.1739 54.6375C57.2021 53.7989 58.9414 52.3867 60.1786 50.5739C61.4158 48.7611 62.097 46.6267 62.1387 44.4323C62.1463 44.2655 62.2177 44.1078 62.3382 43.992C62.4586 43.8762 62.6188 43.811 62.7859 43.8099C62.8694 43.8115 62.9517 43.8295 63.0282 43.8629C63.1047 43.8963 63.1739 43.9445 63.2317 44.0047C63.2896 44.0648 63.3351 44.1358 63.3655 44.2136C63.3959 44.2913 63.4107 44.3743 63.409 44.4578C63.3487 47.7404 62.0026 50.8682 59.6602 53.1686C57.3177 55.469 54.166 56.7583 50.8828 56.7591Z" fill="#CFCFCF"/>
<path d="M62.1915 41.1688C62.0565 41.1685 61.9252 41.1253 61.8165 41.0453C61.7077 40.9654 61.6273 40.8529 61.5868 40.7242C61.1847 39.4713 60.5609 38.3007 59.7449 37.2684C59.6404 37.1362 59.5927 36.9678 59.6123 36.8004C59.6319 36.633 59.7172 36.4802 59.8494 36.3757C59.9816 36.2712 60.15 36.2235 60.3174 36.2431C60.4848 36.2627 60.6376 36.348 60.7421 36.4802C61.6524 37.6319 62.3485 38.9377 62.7974 40.3355C62.8281 40.4308 62.8359 40.532 62.8201 40.6309C62.8042 40.7297 62.7653 40.8235 62.7063 40.9044C62.6474 40.9853 62.5701 41.0512 62.4808 41.0966C62.3916 41.142 62.2929 41.1656 62.1927 41.1656L62.1915 41.1688Z" fill="#CFCFCF"/>
<path d="M50.8333 53.5649C48.9815 53.5649 47.1713 53.0158 45.6316 51.9869C44.0919 50.958 42.8918 49.4957 42.1833 47.7848C41.4747 46.0739 41.2894 44.1913 41.6508 42.3751C42.0122 40.5589 42.9041 38.8907 44.2137 37.5814C45.5232 36.2721 47.1916 35.3806 49.0079 35.0195C50.8242 34.6585 52.7067 34.8442 54.4175 35.5531C56.1282 36.262 57.5903 37.4623 58.6189 39.0022C59.6474 40.5421 60.1962 42.3525 60.1958 44.2043C60.1924 46.6862 59.2049 49.0654 57.4498 50.8202C55.6946 52.575 53.3152 53.562 50.8333 53.5649ZM50.8333 36.1101C49.2329 36.1101 47.6684 36.5847 46.3377 37.4738C45.007 38.3629 43.9697 39.6266 43.3572 41.1052C42.7447 42.5837 42.5843 44.2107 42.8964 45.7804C43.2085 47.3501 43.979 48.792 45.1105 49.9238C46.2421 51.0556 47.6838 51.8265 49.2534 52.1389C50.823 52.4514 52.45 52.2914 53.9287 51.6792C55.4074 51.067 56.6714 50.0301 57.5608 48.6996C58.4502 47.3691 58.9252 45.8047 58.9255 44.2043C58.923 42.0589 58.0696 40.002 56.5526 38.485C55.0355 36.9679 52.9787 36.1145 50.8333 36.112V36.1101Z" fill="#CFCFCF"/>
<path d="M53.3376 48.6933C53.2347 48.6933 53.1334 48.6682 53.0423 48.6203L50.8333 47.4592L48.6243 48.6203C48.5194 48.6754 48.4012 48.7001 48.283 48.6916C48.1648 48.6831 48.0513 48.6416 47.9555 48.572C47.8596 48.5023 47.7851 48.4072 47.7404 48.2975C47.6958 48.1877 47.6827 48.0676 47.7027 47.9508L48.1244 45.491L46.3378 43.7494C46.2529 43.6667 46.1928 43.5619 46.1644 43.4468C46.1359 43.3317 46.1403 43.211 46.1769 43.0983C46.2135 42.9855 46.2809 42.8853 46.3715 42.8089C46.4622 42.7324 46.5724 42.6829 46.6897 42.6659L49.1591 42.307L50.2642 40.0694C50.3227 39.9706 50.4059 39.8886 50.5057 39.8317C50.6055 39.7748 50.7184 39.7449 50.8333 39.7449C50.9482 39.7449 51.0611 39.7748 51.1609 39.8317C51.2607 39.8886 51.3439 39.9706 51.4024 40.0694L52.5075 42.307L54.9769 42.6659C55.0942 42.6829 55.2044 42.7324 55.2951 42.8089C55.3857 42.8853 55.4531 42.9855 55.4897 43.0983C55.5263 43.211 55.5307 43.3317 55.5022 43.4468C55.4738 43.5619 55.4137 43.6667 55.3288 43.7494L53.5421 45.491L53.9639 47.9508C53.9795 48.042 53.975 48.1355 53.9508 48.2248C53.9265 48.3141 53.883 48.397 53.8234 48.4677C53.7637 48.5384 53.6894 48.5952 53.6055 48.6342C53.5216 48.6732 53.4301 48.6933 53.3376 48.6933ZM50.8333 46.1064C50.9362 46.1063 51.0375 46.1311 51.1286 46.1788L52.4942 46.8972L52.2306 45.3766C52.2132 45.2751 52.2208 45.1709 52.2527 45.073C52.2845 44.9751 52.3397 44.8864 52.4135 44.8145L53.518 43.7348L51.9937 43.5132C51.8918 43.4984 51.795 43.459 51.7117 43.3985C51.6284 43.3379 51.561 43.2581 51.5154 43.1657L50.8333 41.7856L50.1505 43.1689C50.1049 43.2613 50.0376 43.3411 49.9543 43.4016C49.871 43.4622 49.7742 43.5015 49.6723 43.5163L48.1479 43.738L49.2524 44.8177C49.3262 44.8896 49.3814 44.9783 49.4133 45.0762C49.4451 45.1741 49.4527 45.2783 49.4354 45.3798L49.1724 46.8959L50.538 46.1775C50.6292 46.1303 50.7305 46.1059 50.8333 46.1064Z" fill="#CFCFCF"/>
</svg>
