<svg xmlns="http://www.w3.org/2000/svg" width="48" height="26" viewBox="0 0 48 26">
    <g fill="none" fill-rule="evenodd">
        <g fill="#000" fill-rule="nonzero">
            <g>
                <g>
                    <path d="M72.377 51.891c0 .445.148.965.52 1.335l7.861 7.863H40.854c-1.038 0-1.854.815-1.854 1.854 0 1.038.816 1.854 1.854 1.854h39.904l-7.862 7.788c-.37.37-.519.816-.519 1.335 0 .52.148.964.52 1.335.74.742 1.928.742 2.595 0L86.47 64.278c.075-.074.149-.223.223-.297.37-.519.37-1.186.148-1.706-.074-.222-.222-.445-.37-.593L75.491 50.556c-.742-.741-1.928-.741-2.596 0-.37.371-.519.816-.519 1.335z" transform="translate(-1054 -1927) translate(178 1120) translate(837 757)"/>
                </g>
            </g>
        </g>
    </g>
</svg>
