<svg enable-background="new 0 0 332.8 332.8" viewBox="0 0 332.8 332.8" xmlns="http://www.w3.org/2000/svg"><path d="m139.6 164c-10.8 0-19.2 8.8-19.2 19.2s8.4 19.2 19.2 19.2 19.2-8.8 19.2-19.2c0-10.8-8.8-19.2-19.2-19.2zm0 30.4c-6.4 0-11.6-5.2-11.6-11.6s5.2-11.6 11.6-11.6 11.6 5.2 11.6 11.6-5.2 11.6-11.6 11.6z"/><path d="m316.4 86.4c0-.4-.4-.4-.4-.8 0 0 0 0-.4 0-.4-.4-.8-.4-.8-.8-.4 0-.4-.4-.8-.4l-134.4-70.8v-.4c0-7.2-6-13.2-13.2-13.2s-13.2 6-13.2 13.2v.4l-134.4 70.4c-.4 0-.4.4-.8.4-.4.4-.8.4-.8.8-.4.4-.4.4-.8.8 0 .4-.4.4-.4.8v.4.8.8 238 .8c0 .4 0 .8.4 1.2 0 .4.4.8.4 1.2s0 .4.4.8.8.8 1.6 1.2l.4.4c.8.4 1.6.4 2.4.4h289.6c.8 0 1.6 0 2.4-.4l.4-.4c.4-.4 1.2-.8 1.6-1.2 0-.4.4-.4.4-.8.4-.4.4-.8.4-1.2.4 0 .4-.4.4-.8s0-.4 0-.8v-238c0-.4 0-.4 0-.8s0-.8 0-.8 0 0 0-.4-.4-.8-.4-.8zm-157.6-62.8c2 1.6 4.8 2.4 7.6 2.4s5.6-.8 7.6-2.4l114 60h-243.2zm136.4 71.2-25.6 21.2h-206.4l-25.6-21.2zm-84.4 96.8c-1.2-1.2-2.8-2-4.4-2s-3.2.8-4.4 2l-47.2 56.8-40.8-37.6c-2.4-2-6-2-8 .4l-38.8 42v-125.6h199.2v125.6h-.4zm54.8 78.8v18.8h-198.8v-19.2l43.6-46.8 40.8 37.6c1.2 1.2 2.8 1.6 4.4 1.6s3.2-.8 4-2l47.2-56 58.4 65.6zm-238.4-169.2 28 23.2v167.6l-28 23.2zm10.4 220.4 25.6-21.2h206.4l25.6 21.2zm267.6-6.8-28-22.8v-167.6l28-23.2z"/></svg>