<svg width="30" height="30" viewBox="0 0 30 30" fill="none" xmlns="http://www.w3.org/2000/svg">
<circle cx="15" cy="15" r="15" fill="#A39D8E"/>
<path d="M10.2002 13.3045C10.2002 12.7857 10.2945 12.2956 10.4803 11.8381C10.6578 11.3938 10.9215 10.986 11.2574 10.6365C11.5926 10.2915 11.9762 9.99321 12.3971 9.75021C12.8289 9.49891 13.2964 9.30932 13.785 9.18739C14.2794 9.0625 14.7885 8.99952 15.2997 9C16.0893 9 16.8241 9.16071 17.5056 9.4808C18.1781 9.79505 18.7506 10.2773 19.1631 10.8772C19.5888 11.4874 19.8002 12.1776 19.8002 12.9471C19.8002 13.4086 19.7531 13.86 19.6567 14.3015C19.5621 14.7427 19.4117 15.1711 19.2089 15.5772C19.0155 15.9702 18.7628 16.3336 18.4588 16.6555C18.1533 16.9722 17.7833 17.2251 17.3718 17.3983C16.9251 17.5867 16.4418 17.6814 15.9541 17.6764C15.6151 17.6764 15.2768 17.5997 14.9427 17.4457C14.6085 17.2923 14.3687 17.0816 14.2245 16.8115C14.1739 16.9989 14.1046 17.2696 14.0124 17.6237C13.9236 17.9772 13.864 18.2052 13.8377 18.3086C13.8099 18.4113 13.7586 18.5827 13.6838 18.8201C13.633 18.9957 13.5678 19.1671 13.489 19.3329L13.2505 19.7823C13.1474 19.9752 13.0321 20.1618 12.9053 20.3412C12.7798 20.5159 12.6245 20.7246 12.4394 20.9647L12.3361 21L12.2675 20.928C12.1933 20.1724 12.1552 19.7203 12.1552 19.5709C12.1552 19.1288 12.2099 18.6327 12.3181 18.0819C12.4241 17.5317 12.5919 16.8402 12.8172 16.0086C13.0425 15.1777 13.1715 14.6889 13.2061 14.5442C13.0474 14.2328 12.967 13.826 12.967 13.3259C12.967 12.9264 13.0966 12.5523 13.3566 12.2002C13.6172 11.8495 13.9465 11.6741 14.3458 11.6741C14.6515 11.6741 14.8886 11.7714 15.0584 11.9668C15.229 12.1615 15.3122 12.4069 15.3122 12.7064C15.3122 13.0238 15.2026 13.4832 14.9822 14.0841C14.7617 14.6856 14.6522 15.1344 14.6522 15.4325C14.6522 15.7345 14.7645 15.9873 14.9891 16.1853C15.2108 16.3835 15.5039 16.4909 15.8065 16.4847C16.081 16.4847 16.3354 16.4247 16.5718 16.304C16.8045 16.1869 17.0059 16.0196 17.1603 15.8152C17.4967 15.3713 17.7365 14.8666 17.8654 14.3315C17.9319 14.0501 17.9832 13.7827 18.0151 13.5313C18.0491 13.2785 18.0636 13.0398 18.0636 12.8131C18.0636 11.9815 17.7891 11.3333 17.2435 10.8692C16.6952 10.4051 15.9811 10.1743 15.1028 10.1743C14.1039 10.1743 13.2685 10.4851 12.5995 11.1086C11.9299 11.7301 11.593 12.5203 11.593 13.4786C11.593 13.69 11.6262 13.894 11.6893 14.0914C11.751 14.2881 11.8183 14.4448 11.891 14.5609C11.9631 14.6749 12.0311 14.7863 12.0928 14.889C12.1552 14.9917 12.1878 15.065 12.1878 15.109C12.1878 15.2437 12.151 15.4191 12.0768 15.6358C11.9999 15.8526 11.9091 15.9606 11.7995 15.9606C11.7891 15.9606 11.7462 15.9533 11.6713 15.9379C11.412 15.8635 11.1778 15.7243 10.9926 15.5345C10.796 15.3378 10.6409 15.1064 10.5358 14.853C10.4309 14.6005 10.3493 14.3396 10.2917 14.0734C10.2296 13.8215 10.1989 13.5634 10.2002 13.3045Z" fill="white"/>
</svg>
