<svg width="30" height="30" viewBox="0 0 30 30" fill="none" xmlns="http://www.w3.org/2000/svg">
<circle cx="15" cy="15" r="15" fill="#A39D8E"/>
<g clip-path="url(#clip0)">
<path fill-rule="evenodd" clip-rule="evenodd" d="M21.6792 11.47C21.776 11.1515 21.6792 10.917 21.2154 10.917H19.6842C19.2945 10.917 19.1148 11.1194 19.0174 11.3428C19.0174 11.3428 18.2387 13.2072 17.1356 14.4182C16.7786 14.7693 16.6164 14.8807 16.4216 14.8807C16.3242 14.8807 16.1777 14.7693 16.1777 14.4502V11.47C16.1777 11.0873 16.0704 10.917 15.7461 10.917H13.3381C13.0948 10.917 12.9484 11.0943 12.9484 11.2629C12.9484 11.6252 13.5002 11.7092 13.5568 12.7288V14.9443C13.5568 15.4302 13.4676 15.5183 13.2727 15.5183C12.7536 15.5183 11.4907 13.6452 10.7411 11.5021C10.5958 11.085 10.4488 10.917 10.0574 10.917H8.525C8.0875 10.917 8 11.1194 8 11.3428C8 11.7407 8.51917 13.717 10.4179 16.3309C11.6837 18.1159 13.4658 19.0837 15.0892 19.0837C16.0628 19.0837 16.183 18.869 16.183 18.4986V17.1493C16.183 16.7194 16.2752 16.6337 16.5837 16.6337C16.8112 16.6337 17.2003 16.7457 18.1092 17.6061C19.1475 18.6263 19.3184 19.0837 19.9029 19.0837H21.4342C21.8717 19.0837 22.091 18.869 21.965 18.4443C21.8262 18.022 21.3303 17.4089 20.6729 16.6815C20.3159 16.2673 19.7804 15.8211 19.6177 15.5977C19.3907 15.3112 19.4555 15.1835 19.6177 14.9286C19.6177 14.9286 21.4843 12.3467 21.6786 11.47H21.6792Z" fill="white"/>
</g>
<defs>
<clipPath id="clip0">
<rect width="14" height="14" fill="white" transform="translate(8 8)"/>
</clipPath>
</defs>
</svg>
