<svg width="30" height="30" viewBox="0 0 30 30" fill="none" xmlns="http://www.w3.org/2000/svg">
<circle cx="15" cy="15" r="15" fill="#A39D8E"/>
<path d="M20.1026 11.7749C18.3075 8.99991 14.6426 8.1749 11.8004 9.89992C9.03307 11.6249 8.13554 15.375 9.9306 18.15L10.0802 18.375L9.48183 20.625L11.7256 20.025L11.95 20.175C12.9224 20.7 13.9695 21 15.0166 21C16.1385 21 17.2604 20.7 18.2327 20.1C21.0001 18.3 21.8228 14.625 20.1026 11.7749ZM18.5319 17.55C18.2327 18 17.8587 18.3 17.3352 18.375C17.036 18.375 16.662 18.525 15.1662 17.925C13.8947 17.325 12.8476 16.35 12.0996 15.225C11.6509 14.7 11.4265 14.0249 11.3517 13.3499C11.3517 12.7499 11.5761 12.2249 11.95 11.8499C12.0996 11.6999 12.2492 11.6249 12.3988 11.6249H12.7728C12.9224 11.6249 13.0719 11.6249 13.1467 11.9249C13.2963 12.2999 13.6703 13.1999 13.6703 13.2749C13.7451 13.3499 13.7451 13.4999 13.6703 13.5749C13.7451 13.7249 13.6703 13.8749 13.5955 13.9499C13.5207 14.0249 13.4459 14.1749 13.3711 14.2499C13.2215 14.3249 13.1467 14.475 13.2215 14.625C13.5207 15.075 13.8947 15.525 14.2686 15.9C14.7174 16.275 15.1662 16.575 15.6897 16.8C15.8393 16.875 15.9889 16.875 16.0637 16.725C16.1385 16.575 16.5125 16.2 16.662 16.05C16.8116 15.9 16.8864 15.9 17.036 15.975L18.2327 16.575C18.3823 16.65 18.5319 16.725 18.6067 16.8C18.6815 17.025 18.6815 17.325 18.5319 17.55Z" fill="white"/>
</svg>
